<?xml version="1.0" encoding="UTF-8"?>
<!DOCTYPE svg PUBLIC "-//W3C//DTD SVG 1.1//EN" "http://www.w3.org/Graphics/SVG/1.1/DTD/svg11.dtd">
<!-- Creator: CorelDRAW 2021.5 -->
<svg xmlns="http://www.w3.org/2000/svg" xml:space="preserve" width="1500px" height="560px" version="1.1" style="shape-rendering:geometricPrecision; text-rendering:geometricPrecision; image-rendering:optimizeQuality; fill-rule:evenodd; clip-rule:evenodd"
viewBox="0 0 1500 560"
 xmlns:xlink="http://www.w3.org/1999/xlink"
 xmlns:xodm="http://www.corel.com/coreldraw/odm/2003">
 <defs>
  <style type="text/css">
   <![CDATA[
    .fil10 {fill:#575453}
    .fil9 {fill:#575554}
    .fil6 {fill:#595655}
    .fil12 {fill:#B12D00}
    .fil15 {fill:#B1490A}
    .fil7 {fill:#B72C00}
    .fil8 {fill:#CC3F00}
    .fil5 {fill:#E25100}
    .fil14 {fill:#E9650D}
    .fil2 {fill:#F96500}
    .fil3 {fill:#FE885A}
    .fil13 {fill:#FEFEFE}
    .fil1 {fill:#FF721B}
    .fil4 {fill:#FF7E3B}
    .fil11 {fill:#FF9279}
    .fil0 {fill:white}
    .fil16 {fill:#F5875B;fill-rule:nonzero}
   ]]>
  </style>
 </defs>
 <g id="Слой_x0020_1">
  <metadata id="CorelCorpID_0Corel-Layer"/>
  <g id="_2308858955360">
   <path class="fil0" d="M121.748 525.377c-7.289,-23.996 -3.193,-32.199 5.913,-51.852 4.457,-9.619 19.088,-36.088 21.021,-44.149 -0.167,-1.328 -0.463,-1 0.87,-1l0 -1 1 -0.999 0 -1 1 -1 0 -1.001 1 -1 0 -1 1 -0.999 0 -1 1.001 -1 0 -1.001 0.999 -1 0 -1 1 -0.999 0 -1 1.004 -1 1 -2.001c1.216,-5.216 9.265,-19.507 11.993,-25.007l30.549 -60.989c-0.003,-0.99 -4.212,-10.856 -5.261,-13.284 -3.84,-8.892 -7.224,-17.04 -10.846,-26.154 -3.628,-9.126 -7.242,-17.005 -10.869,-26.131l-16.144 -38.857c-1.903,-4.531 -3.039,-10.099 -6.422,-12.578 -0.44,1.891 -102.359,207.321 -110.807,221.194 -10.029,16.47 -14.298,29.205 -7.564,52.178 4.572,15.599 16.847,29.119 29.175,36.825 8.319,5.2 11.761,7.887 25.189,7.81 11.394,-0.065 22.804,-0.006 34.199,-0.006z"/>
   <path class="fil0" d="M128.556 525.138l175 0.241 -20.026 -47.976c-3.462,-7.831 -6.499,-16.085 -10,-24l-9.974 -24.027 -108 0.216c-4.087,3.018 -18.574,36.189 -22.241,43.511 -3.357,6.701 -7.66,15.652 -9.271,23.642 -1.755,8.708 -1.904,23.845 4.512,28.393z"/>
   <path class="fil0" d="M1340.056 246.361l19.841 -0.037 0.002 -88.114 12.255 40.167 7.02 23.882c2.273,7.813 4.963,15.88 6.882,24.118l3 -0.016 21.289 0 25.217 -86.955 0.665 40.971 -0.177 46 6.006 -0.016 19.385 0 0.115 -0.984 -0.515 -164 0.018 -5 -25.003 0 -8.125 28.875c-4.82,15.07 -21.568,76.545 -25.432,86.124l-4.298 14.778 -36.374 -124.777c-0.561,-1.613 -0.917,-3.22 -1.771,-5l-25 0 0 170 5 -0.016z"/>
   <path class="fil0" d="M1235.056 158.579l-9.622 -0.323 -0.028 -51.646c6.286,-1.07 25.643,-0.759 32.703,-0.42 10.064,0.483 15.418,7.156 18.014,15.187 1.926,9.569 4.939,20.615 -5.785,31.282 -9.771,9.719 -13.71,4.227 -35.282,5.92zm-29 87.782l19.381 0 -0.031 -57.635c6.712,-1.01 24.384,-0.716 31.67,-0.338 9.886,0.513 16.244,6.001 18.42,13.989 0.64,2.387 2.074,4.88 2.464,8.091l0.096 35.909 5 -0.016 20 0c-0.027,-20.691 2.561,-40.558 -5.751,-59.238 -2.471,-5.553 -6.302,-8.968 -8.181,-13.747 7.891,-12.686 14.178,-21.924 13.871,-42 -0.297,-19.446 -6.857,-30.232 -15.32,-41.999l-14.484 -10.135c-7.182,-2.937 -11.893,-2.872 -22.135,-2.866 -17,0.011 -34,0.001 -51,0.001 0,5.004 1.105,4.681 0.859,8.849 -1.478,25.084 -0.859,49.659 -0.859,75.151 0,28.666 0,57.333 0,86l6 -0.016z"/>
   <path class="fil0" d="M562.811 153.377c0.769,6.441 2.825,13.745 4.002,19.243 1.518,7.096 2.694,13.109 4.243,19.757l-18 0.015 -11.81 -0.032 15.032 -72.699 6.533 33.716zm-51.755 92.984l18.88 -0.028 5.027 -24.317 42.094 0.029 2.112 9.332c0.194,5.424 2.756,9.141 2.887,15l4 -0.016 21.922 -0.015 -34.323 -164.969 -0.675 -4.996 -32.924 -0.004 -36 170 7 -0.016z"/>
   <path class="fil0" d="M880.27 153.377c0.769,2.155 1.257,6.016 1.857,8.926 1.498,7.256 5.929,23.93 5.929,30.074l-17 0.015 -12.09 0c1.573,-11.696 5.381,-25.528 7.777,-37.28 2.437,-11.956 5.423,-24.76 7.963,-35.763 -0.396,11.378 4.867,23.477 5.564,34.028zm-51.214 92.984c20.552,0 18.31,1.419 19.661,-5.324 0.926,-4.623 2.608,-18.134 5.339,-19.049l41.16 0.023 1.856 9.366c0.065,4.026 2.081,11.123 2.984,15l4 -0.016 21.659 -0.076 -34.709 -164.908c-0.169,-2.715 -0.415,-2.707 -0.95,-5l-32 0 -36 170 7 -0.016z"/>
   <path class="fil0" d="M1090.056 246.361c26.326,0 50.573,0 77.385,0l0.428 -28.984c-5.959,-2.495 -40.299,-1.466 -48.813,-0.798l-10.015 0.186 0 -40.571 38.712 -0.004 0.217 -24.813 0.103 -5 -29.017 0.085 -10.015 0.082 0 -40.344 58.297 0.018 0.314 -24.841 0.482 -4.996 -84.078 -0.004 0 170 6 -0.016z"/>
   <path class="fil0" d="M655.056 166.066c11.199,7.06 13.93,10.195 31.999,10.143 5.39,-0.016 15.733,-0.724 20.073,1.083 4.339,1.806 8.106,6.741 9.095,12.085 0.395,1.03 1.664,8.809 1.747,10.192 0.329,5.488 -5.1,11.681 -9.115,14.606 -3.888,2.833 -4.555,2.286 -10.772,2.228 -16.322,-0.15 -32.699,-0.026 -49.027,-0.026l0 30 5 -0.016c15.605,0 31.48,0.29 47.051,0 15.146,-0.283 25.136,-8.257 31.028,-16.906 13.032,-19.132 13.469,-44.69 0.938,-65.124 -1.96,-3.197 -3.647,-4.153 -5.161,-6.954 -2.756,-4.782 -14.078,-9.519 -19.246,-10.61 -8.092,-1.707 -21.529,0.551 -30.61,-0.763 -14.849,-3.628 -18.934,-22.605 -7.751,-35.365 7.986,-9.111 32.527,-2.467 52.125,-4.888l0.436 -24.374 0.226 -5c-35.12,-0.002 -59.641,-6.966 -75.373,19.662 -6.125,10.367 -9.317,22.809 -7.689,37.338 1.191,10.635 5.658,21.861 12.142,29.907 2.56,3.176 -0.731,0.889 2.884,2.782z"/>
   <path class="fil1" d="M283.843 318.377c-0.147,3.933 25.9,65.423 30.025,74.676l2.891 5.323c-1.587,-12.674 -0.32,-199.99 -0.452,-240.055 -0.002,-0.797 0.011,-3.224 0.128,-3.903 0.054,-0.314 0.112,-0.57 0.183,-0.858 0.068,-0.273 0.193,-0.555 0.268,-0.79l0.704 -1.447 -32.863 -77.756c-2.194,3.151 -0.987,57.531 -0.987,60.809 0,57.533 -1.778,129.831 0.103,184.001z"/>
   <path class="fil0" d="M959.056 106.208l33.337 -0.216 -0.165 9.385 -0.174 131 6.002 -0.016 18.992 0 -0.008 -140.373 38.542 0.012 0.389 -24.623 0.101 -5 -103.016 0c0,5.998 0.032,12.005 -0.003,18.003 -0.052,8.782 -2.481,12.383 6.003,11.828z"/>
   <path class="fil2" d="M316.759 398.376l9.738 25.064c2.443,4.534 -0.238,1.784 3.059,2.881l4.765 -0.014c2.746,-1.371 4.518,-1.21 8.257,-1.451 0,-16.641 1.265,-201.827 -0.572,-213.086 -0.258,-5.985 -20.515,-50.383 -24.416,-60.447l-0.704 1.447c-0.075,0.235 -0.2,0.517 -0.268,0.79 -0.071,0.288 -0.129,0.544 -0.183,0.858 -0.117,0.679 -0.13,3.106 -0.128,3.903 0.132,40.065 -1.135,227.381 0.452,240.055z"/>
   <path class="fil3" d="M227.028 71.376l0.014 96c0.011,2.012 0.219,5.218 0.105,7.053l-1.591 5.456 33 80.541c0.636,-1.071 0.412,-0.208 0.77,-2.235l0.202 -243.815c-0.193,-2.708 -0.439,-2.712 -0.972,-5l-2 0c-0.971,4.167 -5.2,11.4 -7.333,15.667l-15.333 30.667c-2.144,4.287 -6.832,11.452 -6.862,15.666z"/>
   <path class="fil4" d="M258.556 260.426l18.341 43.61c1.164,2.596 1.892,4.34 2.938,7.059 0.458,1.192 0.82,2.423 1.38,3.602l2.628 3.68c-1.881,-54.17 -0.103,-126.468 -0.103,-184.001 0,-3.278 -1.207,-57.658 0.987,-60.809l-22.283 -54.19 -2.916 -5.001 -0.202 243.815c-0.358,2.027 -0.134,1.164 -0.77,2.235z"/>
   <path class="fil0" d="M346.556 468.361l31.377 0.076 42.943 0.07 103.021 -0.182c-2.287,-6.779 -5.292,-12.36 -7.474,-18.948l-2.892 -5.988 -178.975 -0.012c0.362,4.348 2.717,8.789 4.288,12.712 1.532,3.827 3.865,8.649 4.712,12.288l3 -0.016z"/>
   <polygon class="fil0" points="775.056,246.353 794.431,246.353 794.641,81.377 795.136,76.381 769.056,76.377 769.056,246.377 "/>
   <path class="fil5" d="M334.321 426.307l14.536 -0.01 16.646 -1.438c0.002,-14.273 0.829,-147.993 -0.409,-158.278 -0.119,-4.386 -15.753,-39.655 -19.616,-49.098 -1.209,-2.954 -1.145,-3.921 -3.472,-5.713 1.837,11.259 0.572,196.445 0.572,213.086 -3.739,0.241 -5.511,0.08 -8.257,1.451z"/>
   <path class="fil6" d="M284.727 73.567l32.863 77.756c3.901,10.064 24.158,54.462 24.416,60.447 2.327,1.792 2.263,2.759 3.472,5.713 3.863,9.443 19.497,44.712 19.616,49.098 2.878,2.788 7.734,16.101 9.647,20.601 2.02,4.752 8.081,17.848 8.756,22.184l49.547 116.714 -65.54 0.213 -18.647 0.004 -14.536 0.01 -4.765 0.014c6.335,12.366 15.07,9.055 35,9.055 15,0 30,0 45,0 34.541,0 34.978,1.479 22.422,-28.422 -2.503,-5.96 -4.175,-10.434 -6.764,-16.236 -21.952,-49.207 -43.834,-106.826 -65.684,-156.316l-13.408 -31.591c-4.332,-10.9 -8.676,-20.12 -13,-31 -16.365,-41.177 -36.115,-83.97 -52.719,-125.282 -4.654,-11.579 -8.529,-26.403 -17.959,-27.152l22.283 54.19z"/>
   <polygon class="fil7" points="367.504,426.293 433.044,426.08 383.497,309.366 383.818,425.352 "/>
   <path class="fil0" d="M364.556 509.291l30.349 0.019 42.781 0.152 30.585 -0.331 -7.848 -20.755c-0.798,-1.773 -1.319,-2.649 -1.867,-5l-23 0.388 -8.189 0.096c-7.576,0.847 -39.956,1.381 -44.811,-0.711l-31 0.24c0.286,3.417 5.939,16.273 7.79,21.2 1.521,4.048 0.744,4.491 5.21,4.702z"/>
   <path class="fil8" d="M348.857 426.297l18.647 -0.004 16.314 -0.941 -0.321 -115.986c-0.675,-4.336 -6.736,-17.432 -8.756,-22.184 -1.913,-4.5 -6.769,-17.813 -9.647,-20.601 1.238,10.285 0.411,144.005 0.409,158.278l-16.646 1.438z"/>
   <path class="fil9" d="M998.056 246.361c1.027,4.438 2.71,7.425 7.394,8.622 4.309,1.102 11.763,0.7 14.707,-0.506 8.111,-3.321 5.899,-14.937 5.899,-26.1l-0.013 -97.014c-0.094,-14.642 1.225,-17.094 15.99,-17.01 11.913,0.068 21.548,1.679 22.944,-9.056 0.295,-2.278 0.265,-13.589 -0.134,-15.708 -0.919,-4.89 -3.778,-7.072 -8.872,-8.212l-0.389 24.623 -38.542 -0.012 0.008 140.373 -18.992 0z"/>
   <path class="fil9" d="M1442.056 246.361c1.943,8.402 6.981,9.977 18.002,9.024 9.959,-0.862 10.048,-7.249 10.001,-18.005l-0.002 -137.005c0.03,-11.498 0.668,-16.759 -9.016,-18.998l0.515 164 -0.115 0.984 -19.385 0z"/>
   <path class="fil10" d="M775.056 246.353c1.937,8.409 6.979,9.986 18.002,9.032 9.504,-0.823 10.072,-6.652 10.005,-17.001 -0.09,-13.944 1.091,-145.146 -0.63,-150.384 -1.419,-4.318 -4.08,-5.047 -7.792,-6.623l-0.21 164.976 -19.375 0z"/>
   <path class="fil9" d="M1283.056 246.361c2.445,10.572 13.432,10.709 21.607,8.622 9.354,-2.388 7.393,-12.639 7.393,-23.606 -0.001,-43.241 -11.832,-42.229 -10.959,-51.867 0.223,-2.464 23.441,-39.388 2.555,-73.729 -4.02,-6.609 -5.753,-8.133 -10.781,-13.197 -2.6,-2.619 -1.49,-2.374 -5.196,-3.207 8.463,11.767 15.023,22.553 15.32,41.999 0.307,20.076 -5.98,29.314 -13.871,42 1.879,4.779 5.71,8.194 8.181,13.747 8.312,18.68 5.724,38.547 5.751,59.238l-20 0z"/>
   <path class="fil9" d="M654.056 246.361c2.24,9.684 7.5,9.046 18.999,9.017 15.508,-0.039 39.293,2.282 52.028,-3.975 28.545,-14.023 35.945,-59.336 11.703,-87.756 -1.968,-2.307 -5.895,-5.527 -8.874,-6.27 1.514,2.801 3.201,3.757 5.161,6.954 12.531,20.434 12.094,45.992 -0.938,65.124 -5.892,8.649 -15.882,16.623 -31.028,16.906 -15.571,0.29 -31.446,0 -47.051,0z"/>
   <path class="fil11" d="M225.556 179.885l1.591 -5.456c0.114,-1.835 -0.094,-5.041 -0.105,-7.053l-0.014 -96c-2.755,2.274 -5.861,8.73 -7.479,11.993 -2.233,4.502 -4.269,8.561 -6.659,13.341 -2.427,4.853 -4.24,8.48 -6.667,13.333 -3.523,7.045 -5.908,9.112 -4.617,13.192 1.332,4.21 4.19,9.706 5.952,14.14l17.998 42.51z"/>
   <path class="fil9" d="M904.056 246.361c0.928,4.013 3.005,6.821 6.795,8.221 2.11,0.78 11.477,1.319 15.01,0.6 10.196,-2.076 6.887,-13.534 4.952,-22.562l-31.035 -143.965c-2.514,-5.181 -4.138,-5.117 -8.772,-7.278l34.709 164.908 -21.659 0.076z"/>
   <path class="fil9" d="M586.056 246.361c1.978,8.554 10.267,10.649 21.816,8.831 11.207,-1.764 6.865,-13.973 5.091,-22.722l-30.578 -143.422c-1.969,-5.24 -4.052,-5.672 -8.73,-7.671l34.323 164.969 -21.922 0.015z"/>
   <path class="fil10" d="M420.876 468.507l4.077 9.98 2.414 5.373 8.189 -0.096 0 -4.387c8.301,-3.983 51.852,-2.001 66,-2.001 10.146,0 26.51,2.808 27.987,-6.106 0.735,-4.433 -1.952,-10.396 -3.464,-13.416 -2.652,-5.297 -4.705,-6.05 -9.656,-8.477 2.182,6.588 5.187,12.169 7.474,18.948l-103.021 0.182z"/>
   <path class="fil9" d="M1119.056 146.462c-2.846,-35.429 -2.151,-31.087 33,-31.085 15.991,0 27.639,3.7 23.92,-24.92 -0.769,-5.919 -3.57,-7.052 -8.324,-9.08l-0.314 24.841 -58.297 -0.018 0 40.344 10.015 -0.082z"/>
   <path class="fil9" d="M1206.056 246.361c3.392,14.669 22.319,8.285 24.047,7.062 8.125,-5.751 2.027,-34.701 4.29,-47.709 1.105,-6.348 3.633,-7.632 9.758,-8.242 5.571,-0.556 12.126,-0.495 17.524,0.285 7.863,1.137 8.048,2.197 13.821,4.62 -2.176,-7.988 -8.534,-13.476 -18.42,-13.989 -7.286,-0.378 -24.958,-0.672 -31.67,0.338l0.031 57.635 -19.381 0z"/>
   <path class="fil9" d="M678.056 146.004c-1.435,-4.388 -4.257,-5.153 -4.079,-12.612 0.098,-4.064 2.579,-10.201 4.511,-12.584 2.451,-3.025 6.712,-4.874 11.469,-5.531 20.929,-2.889 39.389,4.166 41.887,-9.113 0.427,-2.272 0.427,-14.303 0,-16.575 -0.926,-4.924 -3.802,-7.107 -8.978,-8.212l-0.436 24.374c-19.598,2.421 -44.139,-4.223 -52.125,4.888 -11.183,12.76 -7.098,31.737 7.751,35.365z"/>
   <path class="fil12" d="M398.639 518.023c3.052,-2.778 8.833,-0.74 12.58,0.451 4.056,1.29 9.31,2.148 12.661,3.605 -0.689,3.858 -1.599,3.514 -3.58,6.003l-9.301 10.737 -4.443 -0.213c1.003,1.274 0.243,0.341 1,2.502l43.29 -0.542 -13.16 -31.104 -42.781 -0.152 3.734 8.713z"/>
   <path class="fil9" d="M1389.056 246.361c4.117,7.854 6.098,9.211 18.041,9.084 17.605,-0.188 16.148,-18.051 25.086,-44.941l3.218 -8.854c0.098,-0.179 0.325,-0.497 0.408,-0.64 0.083,-0.142 0.26,-0.436 0.418,-0.633l-0.665 -40.971 -25.217 86.955 -21.289 0z"/>
   <path class="fil10" d="M437.686 509.462l13.16 31.104 -43.29 0.542c5.613,2.218 3.58,8.501 14.004,9.265 7.041,0.516 16.738,0.08 24.044,0.051 22.818,-0.088 5.952,-16.727 5.952,-30.047 5.705,-3.821 5.58,-2.663 14.043,-2.958 17.124,-0.597 5.589,-22.002 0.914,-25.994 -2.558,-2.183 -3.087,-1.71 -6.09,-3.049l7.848 20.755 -30.585 0.331z"/>
   <path class="fil9" d="M1119.056 216.579c-2.451,-31.963 -3.114,-31.307 24.042,-31.161 10.909,0.059 14.044,-3.103 14,-14 -0.048,-11.885 1.015,-17.771 -9.128,-20.041l-0.217 24.813 -38.712 0.004 0 40.571 10.015 -0.186z"/>
   <path class="fil9" d="M1090.056 246.361c2.71,11.719 12.13,9.016 26,9.016 12,0 24,-0.001 36,0 13.143,0 23.445,2.239 24.048,-10.953 1.418,-31.053 -6.754,-14.611 -8.235,-27.047l-0.428 28.984c-26.812,0 -51.059,0 -77.385,0z"/>
   <path class="fil9" d="M1340.056 246.361c1.784,7.712 5.433,9.114 15.015,9.083 21.45,-0.066 11.585,-16.584 14.984,-52.061 0.169,-1.76 -0.171,-0.824 0.448,-2.565 1.439,-4.051 0.179,-0.876 1.651,-2.441l-12.255 -40.167 -0.002 88.114 -19.841 0.037z"/>
   <path class="fil9" d="M1402.499 191.376c-3.946,-4 -24.004,-77.859 -26.568,-85.875 -1.451,-4.539 -2.66,-9.628 -4.469,-14.53 -2.231,-6.042 -4.342,-7.129 -9.635,-9.594l36.374 124.777 4.298 -14.778z"/>
   <path class="fil9" d="M1235.056 158.579c-3.185,-41.523 -5.138,-44.645 24.008,-43.21 11.148,0.548 11.427,2.392 17.059,6.008 -2.596,-8.031 -7.95,-14.704 -18.014,-15.187 -7.06,-0.339 -26.417,-0.65 -32.703,0.42l0.028 51.646 9.622 0.323z"/>
   <path class="fil9" d="M829.056 246.361c0.199,8.992 6.712,9.304 16.043,9.072 22.629,-0.562 5.311,-23.483 26.983,-25.031 11.787,-0.842 18.935,0.975 24.99,0.975l-1.856 -9.366 -41.16 -0.023c-2.731,0.915 -4.413,14.426 -5.339,19.049 -1.351,6.743 0.891,5.324 -19.661,5.324z"/>
   <path class="fil9" d="M511.056 246.361c0.716,8.662 6.453,9.312 16.042,9.072 22.454,-0.562 6.22,-23.613 26.979,-25.035 3.978,-0.273 8.912,-0.028 13.002,-0.045 5.781,-0.023 7.625,0.929 12.09,1.024l-2.112 -9.332 -42.094 -0.029 -5.027 24.317 -18.88 0.028z"/>
   <path class="fil9" d="M553.056 192.392c0,-8.422 1.947,-13.074 3.418,-20.597 0.75,-3.832 1.273,-6.205 2.163,-9.838 1.563,-6.379 1.188,-7.339 4.174,-8.58l-6.533 -33.716 -15.032 72.699 11.81 0.032z"/>
   <path class="fil9" d="M871.056 192.392c0,-8.811 1.576,-13.646 3.072,-20.944 0.696,-3.4 1.416,-5.897 2.317,-9.681 1.054,-4.425 0.786,-6.444 3.825,-8.39 -0.697,-10.551 -5.96,-22.65 -5.564,-34.028 -2.54,11.003 -5.526,23.807 -7.963,35.763 -2.396,11.752 -6.204,25.584 -7.777,37.28l12.09 0z"/>
   <path class="fil13" d="M158.556 410.376l-1 2.001 -1.004 1 0 1 -1 0.999 0 1 -0.999 1 0 1.001 -1.001 1 0 1 -1 0.999 0 1 -1 1 0 1.001 -1 1 0 1 -1 0.999 0 1 -0.87 1c-1.933,8.061 -16.564,34.53 -21.021,44.149 -9.106,19.653 -13.202,27.856 -5.913,51.852l4.568 5.236c1.262,-4.061 1.269,-1.411 2.24,-5.475 -6.416,-4.548 -6.267,-19.685 -4.512,-28.393 1.611,-7.99 5.914,-16.941 9.271,-23.642 3.667,-7.322 18.154,-40.493 22.241,-43.511 1.546,-7.318 7.414,-11.168 8,-18.216 -5.381,-1.427 -1.094,-2.674 -5,-1z"/>
   <path class="fil9" d="M716.223 189.377c-0.989,-5.344 -4.756,-10.279 -9.095,-12.085 -4.34,-1.807 -14.683,-1.099 -20.073,-1.083 -18.069,0.052 -20.8,-3.083 -31.999,-10.143 0.733,3.165 1.984,4.091 3.992,6.325 19.386,21.568 40.223,6.744 57.175,16.986z"/>
   <path class="fil14" d="M382.03 480.377c-0.179,2.105 -0.429,1.383 0.526,2.772 4.855,2.092 37.235,1.558 44.811,0.711l-2.414 -5.373c-7.258,-2.038 -15.656,-1.105 -22.951,-2.698 -4.866,-1.062 -15.957,-3.103 -21.015,-0.866l1.043 5.454z"/>
   <path class="fil8" d="M398.782 520.377c2.154,5.45 5.168,12.633 7.774,18.229l4.443 0.213 9.301 -10.737c1.981,-2.489 2.891,-2.145 3.58,-6.003 -3.351,-1.457 -8.605,-2.315 -12.661,-3.605 -3.747,-1.191 -9.528,-3.229 -12.58,-0.451l0.143 2.354z"/>
   <path class="fil15" d="M380.987 474.923c5.058,-2.237 16.149,-0.196 21.015,0.866 7.295,1.593 15.693,0.66 22.951,2.698l-4.077 -9.98 -42.943 -0.07c0.898,3.037 1.124,4.505 3.054,6.486z"/>
   <path class="fil9" d="M382.03 480.377l-1.043 -5.454c-1.93,-1.981 -2.156,-3.449 -3.054,-6.486l-31.377 -0.076c1.467,6.343 6.004,9.059 13.947,9.069 5.663,0.007 10.786,-0.319 16.691,1.275 3.238,0.874 0.725,0.781 4.836,1.672z"/>
   <path class="fil6" d="M992.228 115.377l0.165 -9.385 -33.337 0.216c2.948,6.128 3.736,8.193 12.946,8.223 7.84,0.026 13.649,-0.47 20.226,0.946z"/>
   <path class="fil9" d="M398.782 520.377l-0.143 -2.354 -3.734 -8.713 -30.349 -0.019c1.45,5.656 6.647,8.13 13.947,8.139 9.797,0.011 13.342,-0.29 20.279,2.947z"/>
  </g>
  <path class="fil16" d="M529 369.105l11.317 0 0 23.804c2.51,-0.26 4.214,-0.898 5.099,-1.951 0.884,-1.041 2.263,-3.942 4.11,-8.703 2.328,-6.048 4.683,-9.821 7.037,-11.291 2.342,-1.469 6.101,-2.21 11.304,-2.21 0.26,0 0.807,-0.014 1.639,-0.04l0 8.352 -1.6 -0.04c-2.315,0 -4.006,0.286 -5.073,0.859 -1.066,0.572 -1.925,1.443 -2.588,2.614 -0.664,1.171 -1.639,3.577 -2.927,7.219 -0.69,1.939 -1.431,3.552 -2.238,4.852 -0.793,1.302 -2.211,2.524 -4.24,3.669 2.51,0.702 4.578,2.146 6.218,4.305 1.638,2.159 3.434,5.203 5.385,9.145l7.609 15.297 -13.267 0 -6.699 -14.387c-0.105,-0.208 -0.325,-0.598 -0.651,-1.184 -0.13,-0.194 -0.598,-1.079 -1.392,-2.627 -1.43,-2.758 -2.614,-4.475 -3.525,-5.164 -0.923,-0.69 -2.315,-1.041 -4.201,-1.067l0 24.429 -11.317 0 0 -55.881zm44.903 35.133c0,-3.564 0.871,-7.011 2.627,-10.341 1.757,-3.343 4.241,-5.879 7.454,-7.635 3.213,-1.756 6.79,-2.641 10.757,-2.641 6.127,0 11.135,1.99 15.05,5.97 3.915,3.994 5.866,9.015 5.866,15.102 0,6.14 -1.976,11.226 -5.918,15.259 -3.954,4.032 -8.923,6.048 -14.919,6.048 -3.708,0 -7.246,-0.845 -10.615,-2.523 -3.356,-1.678 -5.918,-4.136 -7.675,-7.389 -1.756,-3.238 -2.627,-7.193 -2.627,-11.85zm11.004 0.573c0,4.019 0.95,7.102 2.849,9.235 1.913,2.147 4.254,3.213 7.05,3.213 2.784,0 5.126,-1.066 7.012,-3.213 1.885,-2.133 2.835,-5.242 2.835,-9.313 0,-3.968 -0.95,-7.024 -2.835,-9.158 -1.886,-2.146 -4.228,-3.213 -7.012,-3.213 -2.796,0 -5.137,1.067 -7.05,3.213 -1.899,2.134 -2.849,5.217 -2.849,9.236zm38.451 -20.332l13.346 0 9.951 28.227 10.12 -28.227 13.255 0 0 40.507 -9.132 0 0 -26.666 -9.808 26.666 -9.196 0 -9.405 -26.666 0 26.666 -9.131 0 0 -40.507zm56.948 0l35.979 0 0 40.507 -10.692 0 0 -31.843 -14.594 0 0 31.843 -10.693 0 0 -40.507zm50.496 0l35.823 0 0 40.507 -10.692 0 0 -31.843 -14.517 0 0 18.223c0,4.631 -0.533,7.883 -1.6,9.756 -1.079,1.873 -2.263,3.096 -3.564,3.682 -1.288,0.585 -3.382,0.884 -6.256,0.884 -1.705,0 -3.968,-0.234 -6.765,-0.677l0 -7.869c0.234,0 0.833,0.026 1.796,0.078 1.118,0.078 1.99,0.117 2.601,0.117 1.457,0 2.341,-0.481 2.68,-1.431 0.325,-0.962 0.494,-3.616 0.494,-7.973l0 -23.454zm69.084 27.707l10.692 1.795c-1.366,3.916 -3.538,6.895 -6.49,8.949 -2.966,2.043 -6.673,3.07 -11.109,3.07 -7.037,0 -12.253,-2.302 -15.623,-6.907 -2.666,-3.694 -4.006,-8.351 -4.006,-13.983 0,-6.712 1.756,-11.98 5.255,-15.778 3.499,-3.812 7.935,-5.711 13.294,-5.711 6.01,0 10.757,1.99 14.244,5.97 3.473,3.981 5.138,10.082 4.982,18.303l-26.77 0c0.078,3.173 0.936,5.645 2.588,7.414 1.639,1.769 3.695,2.654 6.14,2.654 1.678,0 3.082,-0.456 4.214,-1.366 1.145,-0.911 2.004,-2.381 2.589,-4.41zm0.624 -10.848c-0.078,-3.109 -0.871,-5.477 -2.393,-7.09 -1.522,-1.626 -3.369,-2.432 -5.555,-2.432 -2.328,0 -4.253,0.859 -5.775,2.562 -1.522,1.704 -2.264,4.033 -2.237,6.96l15.96 0zm18.9 -16.859l10.693 0 0 16.546c1.782,-0.208 3.044,-0.754 3.785,-1.638 0.728,-0.885 1.626,-2.823 2.667,-5.815 1.378,-3.994 2.874,-6.53 4.513,-7.648 1.626,-1.119 3.759,-1.679 6.413,-1.679 0.819,0 2.224,0.065 4.241,0.196l0.039 7.063c-2.836,0 -4.644,0.26 -5.425,0.793 -0.793,0.559 -1.652,2.225 -2.562,4.995 -1.249,3.721 -3.057,6.023 -5.398,6.881 3.382,0.937 6.243,3.89 8.585,8.846 0.117,0.26 0.26,0.52 0.416,0.806l5.984 11.161 -11.512 0 -5.334 -11.747c-1.092,-2.367 -2.042,-3.889 -2.848,-4.565 -0.794,-0.676 -1.991,-1.015 -3.564,-1.015l0 17.327 -10.693 0 0 -40.507zm73.78 12.02l-10.536 1.873c-0.351,-2.094 -1.158,-3.668 -2.42,-4.735 -1.261,-1.053 -2.887,-1.587 -4.89,-1.587 -2.667,0 -4.8,0.924 -6.387,2.771 -1.587,1.847 -2.381,4.93 -2.381,9.261 0,4.813 0.807,8.208 2.419,10.198 1.614,1.991 3.773,2.979 6.479,2.979 2.029,0 3.694,-0.585 4.981,-1.743 1.301,-1.158 2.212,-3.148 2.745,-5.984l10.536 1.796c-1.092,4.838 -3.187,8.494 -6.282,10.965 -3.096,2.471 -7.246,3.707 -12.462,3.707 -5.905,0 -10.627,-1.873 -14.14,-5.606 -3.524,-3.746 -5.28,-8.923 -5.28,-15.544 0,-6.699 1.769,-11.902 5.294,-15.636 3.525,-3.733 8.298,-5.593 14.321,-5.593 4.917,0 8.832,1.067 11.746,3.187 2.901,2.12 4.982,5.346 6.257,9.691zm7.661 -12.02l10.693 0 0 14.829 15.453 0 0 -14.829 10.692 0 0 40.507 -10.692 0 0 -17.015 -15.453 0 0 17.015 -10.693 0 0 -40.507zm45.111 19.759c0,-3.564 0.872,-7.011 2.628,-10.341 1.756,-3.343 4.24,-5.879 7.453,-7.635 3.213,-1.756 6.79,-2.641 10.758,-2.641 6.126,0 11.134,1.99 15.049,5.97 3.916,3.994 5.867,9.015 5.867,15.102 0,6.14 -1.977,11.226 -5.919,15.259 -3.954,4.032 -8.923,6.048 -14.919,6.048 -3.708,0 -7.246,-0.845 -10.615,-2.523 -3.356,-1.678 -5.918,-4.136 -7.674,-7.389 -1.756,-3.238 -2.628,-7.193 -2.628,-11.85zm11.005 0.573c0,4.019 0.949,7.102 2.848,9.235 1.913,2.147 4.254,3.213 7.05,3.213 2.784,0 5.126,-1.066 7.012,-3.213 1.886,-2.133 2.836,-5.242 2.836,-9.313 0,-3.968 -0.95,-7.024 -2.836,-9.158 -1.886,-2.146 -4.228,-3.213 -7.012,-3.213 -2.796,0 -5.137,1.067 -7.05,3.213 -1.899,2.134 -2.848,5.217 -2.848,9.236zm62.58 7.375l10.692 1.795c-1.366,3.916 -3.538,6.895 -6.49,8.949 -2.967,2.043 -6.673,3.07 -11.109,3.07 -7.037,0 -12.253,-2.302 -15.623,-6.907 -2.666,-3.694 -4.006,-8.351 -4.006,-13.983 0,-6.712 1.756,-11.98 5.255,-15.778 3.499,-3.812 7.935,-5.711 13.294,-5.711 6.01,0 10.757,1.99 14.244,5.97 3.473,3.981 5.137,10.082 4.982,18.303l-26.77 0c0.078,3.173 0.936,5.645 2.588,7.414 1.639,1.769 3.694,2.654 6.14,2.654 1.678,0 3.082,-0.456 4.214,-1.366 1.145,-0.911 2.004,-2.381 2.589,-4.41zm0.624 -10.848c-0.078,-3.109 -0.871,-5.477 -2.393,-7.09 -1.522,-1.626 -3.369,-2.432 -5.555,-2.432 -2.328,0 -4.253,0.859 -5.775,2.562 -1.522,1.704 -2.264,4.033 -2.237,6.96l15.96 0zm38.555 2.9c0,-3.564 0.871,-7.011 2.627,-10.341 1.756,-3.343 4.241,-5.879 7.454,-7.635 3.213,-1.756 6.79,-2.641 10.757,-2.641 6.127,0 11.135,1.99 15.05,5.97 3.915,3.994 5.866,9.015 5.866,15.102 0,6.14 -1.976,11.226 -5.918,15.259 -3.954,4.032 -8.923,6.048 -14.919,6.048 -3.708,0 -7.246,-0.845 -10.615,-2.523 -3.356,-1.678 -5.919,-4.136 -7.675,-7.389 -1.756,-3.238 -2.627,-7.193 -2.627,-11.85zm11.004 0.573c0,4.019 0.95,7.102 2.849,9.235 1.913,2.147 4.254,3.213 7.05,3.213 2.784,0 5.125,-1.066 7.011,-3.213 1.886,-2.133 2.836,-5.242 2.836,-9.313 0,-3.968 -0.95,-7.024 -2.836,-9.158 -1.886,-2.146 -4.227,-3.213 -7.011,-3.213 -2.796,0 -5.137,1.067 -7.05,3.213 -1.899,2.134 -2.849,5.217 -2.849,9.236zm32.389 -20.332l36.604 0 0 8.664 -12.955 0 0 31.843 -10.693 0 0 -31.843 -12.956 0 0 -8.664zm39.531 19.759c0,-3.564 0.872,-7.011 2.627,-10.341 1.756,-3.343 4.241,-5.879 7.454,-7.635 3.213,-1.756 6.79,-2.641 10.757,-2.641 6.127,0 11.135,1.99 15.05,5.97 3.916,3.994 5.867,9.015 5.867,15.102 0,6.14 -1.977,11.226 -5.919,15.259 -3.954,4.032 -8.923,6.048 -14.919,6.048 -3.708,0 -7.246,-0.845 -10.615,-2.523 -3.356,-1.678 -5.919,-4.136 -7.675,-7.389 -1.755,-3.238 -2.627,-7.193 -2.627,-11.85zm11.004 0.573c0,4.019 0.95,7.102 2.849,9.235 1.913,2.147 4.254,3.213 7.05,3.213 2.784,0 5.125,-1.066 7.011,-3.213 1.887,-2.133 2.837,-5.242 2.837,-9.313 0,-3.968 -0.95,-7.024 -2.837,-9.158 -1.886,-2.146 -4.227,-3.213 -7.011,-3.213 -2.796,0 -5.137,1.067 -7.05,3.213 -1.899,2.134 -2.849,5.217 -2.849,9.236zm38.699 -20.332l35.979 0 0 40.507 -10.692 0 0 -31.843 -14.595 0 0 31.843 -10.692 0 0 -40.507zm50.495 0l35.824 0 0 40.507 -10.692 0 0 -31.843 -14.517 0 0 18.223c0,4.631 -0.534,7.883 -1.6,9.756 -1.08,1.873 -2.263,3.096 -3.565,3.682 -1.287,0.585 -3.381,0.884 -6.256,0.884 -1.704,0 -3.967,-0.234 -6.764,-0.677l0 -7.869c0.234,0 0.833,0.026 1.795,0.078 1.119,0.078 1.99,0.117 2.602,0.117 1.457,0 2.341,-0.481 2.679,-1.431 0.325,-0.962 0.494,-3.616 0.494,-7.973l0 -23.454zm69.084 27.707l10.693 1.795c-1.366,3.916 -3.538,6.895 -6.491,8.949 -2.966,2.043 -6.673,3.07 -11.109,3.07 -7.037,0 -12.253,-2.302 -15.622,-6.907 -2.666,-3.694 -4.006,-8.351 -4.006,-13.983 0,-6.712 1.756,-11.98 5.255,-15.778 3.499,-3.812 7.935,-5.711 13.294,-5.711 6.009,0 10.757,1.99 14.243,5.97 3.473,3.981 5.138,10.082 4.982,18.303l-26.769 0c0.077,3.173 0.936,5.645 2.588,7.414 1.639,1.769 3.694,2.654 6.14,2.654 1.677,0 3.082,-0.456 4.214,-1.366 1.145,-0.911 2.003,-2.381 2.588,-4.41zm0.625 -10.848c-0.078,-3.109 -0.871,-5.477 -2.393,-7.09 -1.522,-1.626 -3.369,-2.432 -5.555,-2.432 -2.328,0 -4.254,0.859 -5.775,2.562 -1.522,1.704 -2.264,4.033 -2.238,6.96l15.961 0zm18.9 -16.859l10.692 0 0 14.829 15.454 0 0 -14.829 10.692 0 0 40.507 -10.692 0 0 -17.015 -15.454 0 0 17.015 -10.692 0 0 -40.507zm47.296 0l10.302 0 0 25.457 16.468 -25.457 10.536 0 0 40.507 -10.302 0 0 -25.821 -16.702 25.821 -10.302 0 0 -40.507zm71.698 27.707l10.693 1.795c-1.366,3.916 -3.538,6.895 -6.491,8.949 -2.966,2.043 -6.673,3.07 -11.109,3.07 -7.037,0 -12.253,-2.302 -15.622,-6.907 -2.666,-3.694 -4.006,-8.351 -4.006,-13.983 0,-6.712 1.756,-11.98 5.255,-15.778 3.499,-3.812 7.935,-5.711 13.294,-5.711 6.009,0 10.757,1.99 14.243,5.97 3.473,3.981 5.138,10.082 4.982,18.303l-26.769 0c0.077,3.173 0.936,5.645 2.588,7.414 1.639,1.769 3.694,2.654 6.14,2.654 1.677,0 3.082,-0.456 4.214,-1.366 1.145,-0.911 2.003,-2.381 2.588,-4.41zm0.625 -10.848c-0.078,-3.109 -0.871,-5.477 -2.393,-7.09 -1.522,-1.626 -3.369,-2.432 -5.555,-2.432 -2.328,0 -4.253,0.859 -5.775,2.562 -1.522,1.704 -2.264,4.033 -2.237,6.96l15.96 0z"/>
 </g>
</svg>
